<?xml version="1.0" encoding="UTF-8"?>
<svg version="1.1" xmlns="http://www.w3.org/2000/svg" width="3385" height="2805">
<path d="M0 0 C0.33 0 0.66 0 1 0 C1.56985659 89.23954236 0.53963062 179.18152643 -64 472 C-64.4730658 473.48814209 -64.4730658 473.48814209 -64.95568848 475.00634766 C-89.64237054 552.61531861 -118.86415303 629.32969556 -157.49609375 701.18798828 C-159.32417467 704.60614347 -161.13093125 708.03528507 -162.9375 711.46484375 C-171.37176811 727.46014233 -179.99873094 743.31484793 -189 759 C-190.34812965 761.3578041 -191.69587087 763.71582546 -193.04296875 766.07421875 C-195.13394559 769.73481214 -197.2253405 773.39515799 -199.3203125 777.0534668 C-202.56104369 782.71445439 -205.78576249 788.38315736 -208.95947266 794.08203125 C-212.74512818 800.87911792 -216.73596189 807.49081529 -221 814 C-222.66989424 816.56040829 -224.33584221 819.12335992 -226 821.6875 C-226.45947021 822.39527588 -226.91894043 823.10305176 -227.39233398 823.83227539 C-232.79730298 832.18771731 -238.04521074 840.64092746 -243.30859375 849.0859375 C-246.99517554 854.99929453 -250.71056249 860.89397159 -254.44555664 866.77685547 C-257.1933322 871.11208241 -259.90567235 875.46641107 -262.5859375 879.84375 C-270.48918662 892.71387537 -278.81980313 905.01062889 -288 917 C-289.36082379 918.78374225 -290.72149595 920.56760019 -292.08203125 922.3515625 C-294.1596034 925.0745278 -296.23800102 927.79682731 -298.32006836 930.51635742 C-301.96553397 935.28759599 -305.54709252 940.08775327 -309 945 C-315.72664754 954.53607928 -322.88333045 963.753464 -330 973 C-330.61117676 973.80026611 -331.22235352 974.60053223 -331.85205078 975.42504883 C-335.23440075 979.82689491 -338.70795219 984.00835477 -342.5 988.0625 C-346.09492684 991.93016642 -349.62627939 995.836657 -353.07421875 999.8359375 C-355.07017655 1002.07885965 -357.13463986 1004.24946803 -359.203125 1006.42529297 C-367.31857284 1015.01465427 -374.74376348 1024.25696074 -380.6875 1034.5 C-382.82466352 1038.05179845 -385.51562631 1040.39396375 -388.69140625 1043.0234375 C-391.43839609 1045.3753442 -394.00780823 1047.88148912 -396.5625 1050.4375 C-397.43003906 1051.30246094 -398.29757812 1052.16742187 -399.19140625 1053.05859375 C-401.21840399 1055.13647247 -403.11736247 1057.29098803 -405 1059.5 C-409.93236736 1065.18313479 -415.29670421 1070.44584195 -420.62426758 1075.75463867 C-422.43360933 1077.55862085 -424.23754319 1079.36788665 -426.04101562 1081.17773438 C-431.85630381 1086.99682792 -437.68720802 1092.7150589 -444 1098 C-445.14100697 1098.97351082 -446.28163882 1099.9474615 -447.421875 1100.921875 C-447.96610107 1101.38424561 -448.51032715 1101.84661621 -449.07104492 1102.32299805 C-454.20177866 1106.683786 -459.25437684 1111.10408298 -464.1875 1115.6875 C-467.81283208 1119.05583447 -471.51232393 1122.2792202 -475.375 1125.375 C-480.41416406 1129.42666217 -485.10465771 1133.77354616 -489.80810547 1138.20263672 C-494.09860775 1142.22094963 -498.55612753 1145.94604885 -503.1484375 1149.6171875 C-506.59576486 1152.49783091 -509.85549511 1155.54594747 -513.125 1158.625 C-520.90132875 1165.90370213 -528.05740698 1171.92506205 -537.91015625 1176.25 C-540.53099455 1177.7343686 -542.21933622 1179.02136349 -544.39453125 1181.02734375 C-550.58616371 1186.61746985 -557.67431893 1190.98759633 -564.625 1195.5625 C-566.11537833 1196.54869199 -567.60561136 1197.53510359 -569.09570312 1198.52172852 C-604.98927326 1222.24879395 -641.91373522 1243.99031246 -680 1264 C-680.92538574 1264.48678223 -681.85077148 1264.97356445 -682.80419922 1265.47509766 C-719.62324379 1284.70458927 -758.69353447 1300.6501226 -798 1314 C-799.19850586 1314.40814941 -800.39701172 1314.81629883 -801.63183594 1315.23681641 C-873.89500116 1339.65159263 -949.39900693 1353.26742621 -1025.75 1353.1875 C-1026.82404083 1353.18689575 -1027.89808167 1353.1862915 -1029.00466919 1353.18566895 C-1114.59648226 1353.05556006 -1198.47898256 1334.73476215 -1320.54492188 1278.37597656 C-1322.8572232 1277.08002089 -1325.18209149 1275.81191723 -1327.515625 1274.5546875 C-1360.38904117 1256.77347467 -1391.43228163 1235.07787665 -1420 1211 C-1421.06372749 1210.11058786 -1422.1275343 1209.22127059 -1423.19140625 1208.33203125 C-1429.13937109 1203.34411308 -1434.99142335 1198.27110844 -1440.734375 1193.046875 C-1442.81761127 1191.16477879 -1444.93218933 1189.32837688 -1447.0625 1187.5 C-1450.73478981 1184.30798954 -1454.14416845 1180.89754945 -1457.53125 1177.40625 C-1459.58068036 1175.40870395 -1461.66593645 1173.54914625 -1463.8359375 1171.6875 C-1467.86897014 1168.18557403 -1471.51336638 1164.429673 -1475.125 1160.5 C-1476.43220735 1159.08976559 -1477.73950113 1157.67961128 -1479.046875 1156.26953125 C-1479.70236328 1155.56006348 -1480.35785156 1154.8505957 -1481.03320312 1154.11962891 C-1482.93263621 1152.07259837 -1484.84590205 1150.03971569 -1486.765625 1148.01171875 C-1492.6773192 1141.75712253 -1498.42146559 1135.46359123 -1503.796875 1128.734375 C-1505.83288125 1126.20741689 -1507.91706457 1123.73513957 -1510.02807617 1121.27124023 C-1570.27826563 1050.89759957 -1615.6779721 962.54880274 -1642 822 C-1642.0928125 821.06397949 -1642.185625 820.12795898 -1642.28125 819.16357422 C-1646.26629116 774.82287519 -1642.26057517 729.24286437 -1628 687 C-1627.7844043 686.34418945 -1627.56880859 685.68837891 -1627.34667969 685.01269531 C-1617.04468223 654.04340341 -1599.88454375 625.2579569 -1577.4375 601.61328125 C-1575.68453471 599.73390019 -1574.04329665 597.86419508 -1572.421875 595.87890625 C-1570.45191382 593.53719433 -1568.57821306 591.58507681 -1566.25 589.625 C-1564.18301319 587.87015484 -1562.13152754 586.12318541 -1560.15234375 584.26953125 C-1513.11168106 540.40855551 -1443.82683233 516.69792823 -1380.15576172 518.72607422 C-1365.62843968 519.36890642 -1351.23697164 522.18079769 -1337 525 C-1335.75589355 525.24556641 -1334.51178711 525.49113281 -1333.22998047 525.74414062 C-1316.83214066 529.08116423 -1300.8961461 533.80834712 -1285 539 C-1284.1430957 539.27392578 -1283.28619141 539.54785156 -1282.40332031 539.83007812 C-1249.54027085 550.38328274 -1218.47718813 566.23366834 -1189 584 C-1188.25556641 584.44698242 -1187.51113281 584.89396484 -1186.74414062 585.35449219 C-1157.91761127 602.74695798 -1130.79959985 623.00408306 -1104.77050781 644.30761719 C-1100.43612493 647.85195732 -1096.04777924 651.31689984 -1091.625 654.75 C-1086.69394292 658.58725147 -1082.00949669 662.60633097 -1077.40625 666.8359375 C-1074.93518494 669.05829146 -1072.39633633 671.16013238 -1069.8125 673.25 C-1065.36147808 676.85470085 -1061.00801395 680.55370267 -1056.6875 684.3125 C-1056.05400635 684.86357422 -1055.4205127 685.41464844 -1054.76782227 685.98242188 C-1053.48168345 687.10162485 -1052.19563212 688.22092837 -1050.90966797 689.34033203 C-1043.86727609 695.4607846 -1036.80997199 701.56030337 -1029.5625 707.4375 C-1025.12759504 711.03636986 -1020.80452655 714.74754299 -1016.5 718.5 C-1010.42778031 723.78892761 -1004.2613691 728.93565734 -998 734 C-996.77539927 735.00572872 -995.55148721 736.01229636 -994.328125 737.01953125 C-985.07828724 744.6175715 -975.64907012 751.91678748 -966 759 C-965.28585937 759.5259375 -964.57171875 760.051875 -963.8359375 760.59375 C-939.42694564 778.53392776 -914.14959066 794.5095501 -887 808 C-885.77192627 808.61270752 -885.77192627 808.61270752 -884.51904297 809.23779297 C-856.21754356 823.16374223 -824.4325145 832.29575015 -793 835 C-791.81535156 835.10957031 -790.63070312 835.21914062 -789.41015625 835.33203125 C-736.87440319 839.53713422 -678.35010787 829.14589287 -631.52099609 804.34130859 C-623.31543882 800.02299509 -614.86226178 796.44336492 -606.3125 792.875 C-587.62553268 785.04635749 -569.65518781 776.5069529 -551.94482422 766.63867188 C-548.89667031 764.94250133 -545.84128649 763.25987551 -542.78515625 761.578125 C-518.76706784 748.30940379 -495.16876273 734.52807838 -474.52832031 716.33984375 C-468.70074693 711.23094235 -462.71321077 706.76345394 -456.125 702.6875 C-449.52002314 698.58146253 -444.0839034 693.72041388 -438.47216797 688.37304688 C-432.44338803 682.75018479 -425.97510771 677.63359346 -419.25 672.875 C-412.94503735 668.35719942 -407.62567171 663.39352844 -403.125 657.0625 C-397.31679552 649.08010132 -389.12893951 643.23391603 -381.39135742 637.23168945 C-376.71507021 633.59626346 -372.1750209 629.82511297 -367.67553711 625.97387695 C-364.41631939 623.18640763 -361.10781228 620.48153027 -357.75 617.8125 C-351.36527743 612.62083508 -345.45776612 606.93254057 -339.50390625 601.2578125 C-336.15658293 598.07004834 -332.75197287 594.95300665 -329.328125 591.84765625 C-323.02111138 586.10142703 -316.96497975 580.1172437 -310.94360352 574.07397461 C-309.17512781 572.30008997 -307.40129956 570.53168223 -305.62695312 568.76367188 C-300.42647357 563.5662355 -295.29550587 558.36845613 -290.52368164 552.76879883 C-287.83104639 549.64299489 -284.96254493 546.6811816 -282.125 543.6875 C-277.2360114 538.4937567 -272.5974669 533.18977766 -268.14453125 527.61328125 C-265.83243208 524.79580521 -263.40746435 522.11735509 -260.9375 519.4375 C-257.19791978 515.36525773 -253.67180976 511.20244097 -250.2578125 506.85546875 C-247.95811122 503.94702302 -245.61649329 501.07676926 -243.26708984 498.20849609 C-237.77808741 491.49936594 -232.41286945 484.72845351 -227.27978516 477.74072266 C-225.78894266 475.71292658 -224.29095616 473.69049216 -222.79296875 471.66796875 C-219.7674768 467.57929426 -216.75550391 463.48085939 -213.74804688 459.37890625 C-212.16668032 457.22683422 -210.5765658 455.08156569 -208.984375 452.9375 C-174.65904127 406.39716784 -144.90943219 356.109184 -118 305 C-117.41895508 303.90107422 -116.83791016 302.80214844 -116.23925781 301.66992188 C-72.87858221 219.54631856 -38.23254564 132.59207267 -3.26879883 9.51123047 C-2.97900146 8.38990723 -2.6892041 7.26858398 -2.390625 6.11328125 C-2.14344727 5.14173096 -1.89626953 4.17018066 -1.64160156 3.16918945 C-1 1 -1 1 0 0 Z " fill="#27A5DF" transform="translate(1685,1291)"/>
<path d="M0 0 C3.4474883 1.29199656 6.66606608 2.84562802 9.91746521 4.56819153 C17.16260911 8.36965628 24.55580812 11.49021852 32.2265625 14.328125 C33.27670029 14.71869583 34.32683807 15.10926666 35.40879822 15.51167297 C45.71571554 19.31453313 56.11072779 22.80686301 66.5625 26.1875 C67.56824066 26.51471039 68.57398132 26.84192078 69.61019897 27.17904663 C92.3218274 34.56407437 115.1438556 41.5929502 137.96264648 48.63769531 C200.81700047 68.04357732 263.3137518 88.10740328 325 111 C325.9882074 111.36649658 326.97641479 111.73299316 327.99456787 112.1105957 C367.25315489 126.68718759 405.87819058 142.66872398 444 160 C444.62741089 160.28512451 445.25482178 160.57024902 445.90124512 160.86401367 C482.00064534 177.28872586 517.67235853 194.62489786 552.09472656 214.34814453 C555.11206189 216.06371519 558.14319226 217.7521855 561.1796875 219.43359375 C575.34231441 227.27771268 589.25782725 235.44061733 603 244 C603.87092285 244.54027832 604.7418457 245.08055664 605.63916016 245.63720703 C628.26114362 259.70848023 650.46830637 274.63151455 671.90332031 290.45654297 C674.17520977 292.12897953 676.45806693 293.78571853 678.7421875 295.44140625 C688.51563726 302.5498141 698.00382823 309.92177295 707.31933594 317.61914062 C709.5868871 319.48219545 711.88581347 321.30437336 714.1875 323.125 C718.57375105 326.62075377 722.85298391 330.23387575 727.12060547 333.87255859 C730.47236865 336.72602043 733.87027098 339.50552011 737.3125 342.25 C742.84448372 346.74372285 748.00694839 351.59859277 753.16723633 356.50878906 C754.12666138 357.42096191 754.12666138 357.42096191 755.10546875 358.3515625 C755.66387451 358.88604004 756.22228027 359.42051758 756.79760742 359.97119141 C758.73057779 361.75181259 760.69978724 363.46810505 762.69042969 365.18334961 C767.26608562 369.17545519 771.56085458 373.41674261 775.84765625 377.71484375 C777.07094887 378.93670128 777.07094887 378.93670128 778.31895447 380.1832428 C780.03198008 381.89559193 781.74375965 383.60918842 783.4543457 385.32397461 C786.05503552 387.93002015 788.66101956 390.53068522 791.26757812 393.13085938 C792.94042486 394.80436699 794.61296134 396.47818482 796.28515625 398.15234375 C797.05513443 398.9202977 797.82511261 399.68825165 798.61842346 400.47947693 C802.73829631 404.617032 806.70032772 408.8356559 810.50428772 413.26617432 C812.72870847 415.84471691 815.05390148 418.32062996 817.375 420.8125 C821.66430703 425.45557189 825.72678619 430.23441617 829.69140625 435.16015625 C831.77108772 437.71841078 833.89094876 440.23183603 836.03491211 442.73583984 C841.4700644 449.08773061 846.65530197 455.58821885 851.68896484 462.26367188 C853.05361208 464.07100356 854.42694872 465.87151814 855.80078125 467.671875 C902.71378914 529.40116908 939.23567273 598.56865053 964 672 C964.39751465 673.17240234 964.7950293 674.34480469 965.20458984 675.55273438 C991.94448565 755.30971938 1003.51984473 839.82342571 1003.31805801 923.76835632 C1003.3123816 926.1752021 1003.30958331 928.58204072 1003.30697632 930.9888916 C1003.26444664 958.07726446 1002.48997813 985.01259546 1000 1012 C999.91278687 1012.94953552 999.82557373 1013.89907104 999.73571777 1014.87738037 C996.37930284 1050.98936059 991.32379565 1086.81547692 984.875 1122.5 C984.71091644 1123.41130676 984.54683289 1124.32261353 984.3777771 1125.26153564 C978.45291496 1157.98116771 978.45291496 1157.98116771 972.125 1172.1875 C971.4148877 1173.81872803 971.4148877 1173.81872803 970.69042969 1175.48291016 C969.14785464 1178.99832601 967.57801586 1182.50036035 966 1186 C965.46020508 1187.20446777 964.92041016 1188.40893555 964.36425781 1189.64990234 C938.52131841 1247.14468302 904.52903923 1301.01989102 862.0546875 1347.7265625 C860.13063862 1349.85545309 858.24854188 1352.01419142 856.375 1354.1875 C853.62955321 1357.34413122 850.73348645 1360.28854009 847.75 1363.21875 C845.91757513 1365.08389674 844.20646865 1367.01927746 842.5 1369 C837.39227758 1374.90402659 831.87853759 1380.15849069 825.96875 1385.25 C824.06976929 1386.93798286 822.27994012 1388.68769734 820.5 1390.5 C816.83714159 1394.21213453 812.96375633 1397.6138765 809 1401 C808.07574219 1401.80179688 807.15148438 1402.60359375 806.19921875 1403.4296875 C798.09977753 1410.41392279 789.69255493 1416.94440373 781.15087891 1423.37695312 C779.05682297 1424.95712156 776.97098141 1426.54757073 774.88671875 1428.140625 C766.14886555 1434.794657 757.22407692 1441.04086432 748 1447 C747.30632324 1447.45310547 746.61264648 1447.90621094 745.89794922 1448.37304688 C714.7725943 1468.67309942 681.63458303 1485.56764835 647 1499 C645.87190918 1499.43795898 644.74381836 1499.87591797 643.58154297 1500.32714844 C595.11232686 1518.89939919 541.71125707 1531.00418618 489.66015625 1531.203125 C487.81110435 1531.21364647 487.81110435 1531.21364647 485.92469788 1531.22438049 C481.97061498 1531.24178429 478.01661304 1531.24881404 474.0625 1531.25 C473.05254093 1531.25066278 473.05254093 1531.25066278 472.02217865 1531.25133896 C452.17849319 1531.25817078 432.65998743 1530.98336458 413 1528 C411.25686523 1527.75854248 411.25686523 1527.75854248 409.47851562 1527.51220703 C323.62503085 1515.55748824 240.42337335 1477.13167632 176.55859375 1418.33984375 C174.36188097 1416.33094152 172.13450631 1414.37485887 169.875 1412.4375 C162.66262409 1406.1543259 156.24780797 1399.22373676 150 1392 C149.46705322 1391.38970947 148.93410645 1390.77941895 148.38500977 1390.15063477 C133.29523966 1372.76862876 120.48366293 1353.48786194 110 1333 C109.62327148 1332.27103516 109.24654297 1331.54207031 108.85839844 1330.79101562 C82.59096866 1279.41862956 66.00939538 1203.09229114 83.77587891 1146.29418945 C90.8616073 1125.18845116 100.79260988 1103.96790966 114 1086 C114.43779785 1085.39671875 114.8755957 1084.7934375 115.32666016 1084.171875 C127.8194158 1066.99063678 141.7035923 1051.23973822 156.6875 1036.1875 C157.3882666 1035.48206055 158.0890332 1034.77662109 158.81103516 1034.04980469 C163.37877761 1029.49603087 168.10902584 1025.20224389 173 1021 C174.19126525 1019.95444642 175.38139915 1018.90760219 176.5703125 1017.859375 C184.83590619 1010.61287443 193.2814176 1003.69192168 202 997 C202.78681152 996.3925293 203.57362305 995.78505859 204.38427734 995.15917969 C215.373223 986.67846663 226.46350875 978.39996124 237.86767578 970.48632812 C240.03359764 968.9765809 242.18779782 967.45132547 244.33984375 965.921875 C255.70941372 957.86489052 267.27495357 950.12152829 278.88449097 942.41699219 C287.32730066 936.81246594 295.72454898 931.17226979 303.95922852 925.26416016 C309.7574662 921.12224449 315.68515211 917.18529613 321.625 913.25 C344.25790203 898.24096347 366.60505607 882.73808424 388 866 C389.15083467 865.10780585 390.30188232 864.21588637 391.453125 863.32421875 C402.27902784 854.91137232 412.73914109 846.09355742 423 837 C423.7105957 836.37351562 424.42119141 835.74703125 425.15332031 835.1015625 C431.31834483 829.61700989 437.25432164 823.9319488 443.08666992 818.09863281 C444.55955972 816.6279359 446.04030265 815.16546466 447.52148438 813.703125 C453.7896604 807.47230573 459.53326097 800.95134237 465 794 C465.56871826 793.29053223 466.13743652 792.58106445 466.72338867 791.85009766 C484.19663698 769.97135152 497.86487252 746.48148886 507 720 C507.25265625 719.26813477 507.5053125 718.53626953 507.765625 717.78222656 C513.08928642 701.9813037 516.53406366 684.67663799 517 668 C517.03867188 666.81011475 517.03867188 666.81011475 517.078125 665.59619141 C518.65910727 610.29145537 500.56408623 558.77238168 476 510 C475.52062988 509.04013184 475.04125977 508.08026367 474.54736328 507.09130859 C457.44803455 472.98501338 435.96073066 440.44365663 413 410 C412.3719043 409.1651709 411.74380859 408.3303418 411.09667969 407.47021484 C396.51140964 388.1243294 381.60455954 369.02334769 365.8828125 350.58398438 C363.03615846 347.24207912 360.25419148 343.85582276 357.5 340.4375 C353.3754401 335.36680449 349.00383401 330.56807521 344.5625 325.77734375 C341.89885863 322.89037879 339.30851652 319.95076666 336.734375 316.984375 C333.96076937 313.81097036 331.1324714 310.68724066 328.30859375 307.55859375 C326.8188072 305.90747667 325.33163123 304.25399856 323.84765625 302.59765625 C317.63527598 295.66630249 311.33692323 288.81726781 305 282 C304.40832031 281.36175293 303.81664063 280.72350586 303.20703125 280.06591797 C294.51948636 270.70677305 285.65878564 261.55463847 276.55834961 252.59521484 C272.46788529 248.55072064 268.58359111 244.42553998 264.83374023 240.06518555 C261.24672304 236.02543339 257.39041273 232.2471701 253.5625 228.4375 C252.75490234 227.62603516 251.94730469 226.81457031 251.11523438 225.97851562 C247.55228342 222.42130674 243.9821423 218.92997908 240.15234375 215.66015625 C233.89527708 210.27878234 228.21208969 204.26669085 222.41796875 198.39746094 C216.98493374 192.90038892 211.55630637 187.47043808 205.671875 182.44921875 C202.49342783 179.69406945 199.61949775 176.63624094 196.6875 173.625 C193.91945891 170.92133196 191.04161164 168.39877297 188.11914062 165.86523438 C184.57895858 162.74922161 181.17029991 159.49633945 177.75 156.25 C170.89108937 149.76737009 163.97320391 143.35933177 157 137 C155.959149 136.0434978 154.91879573 135.08645372 153.87890625 134.12890625 C148.98970059 129.6286492 144.07991959 125.16180139 139.05859375 120.80859375 C136.5104335 118.5698875 134.00589407 116.28589788 131.5 114 C126.0032142 108.99198449 120.43999706 104.07789011 114.78125 99.25390625 C113.58319225 98.2319362 112.3852799 97.20979569 111.1875 96.1875 C110.58147949 95.67034424 109.97545898 95.15318848 109.35107422 94.62036133 C105.60967738 91.4152347 101.93901522 88.14806271 98.3125 84.8125 C93.92644354 80.78606164 89.38258372 77.01890278 84.75 73.28125 C81.91900422 70.93281032 79.20616402 68.49090098 76.5 66 C72.0301488 61.88621091 67.40955107 58.02912703 62.68359375 54.21484375 C60.05291443 52.04367173 57.52057576 49.79758643 55 47.5 C50.77986056 43.65808061 46.41972816 40.03884779 41.984375 36.44921875 C38.61238513 33.68189198 35.30337679 30.84849585 32 28 C27.85312883 24.42679336 23.68391607 20.8927352 19.4375 17.4375 C15.22432811 14.0091962 11.0364562 10.55328709 6.875 7.0625 C6.30579834 6.5893335 5.73659668 6.11616699 5.15014648 5.62866211 C1.11564038 2.23128077 1.11564038 2.23128077 0 0 Z " fill="#22466F" transform="translate(1918,1261)"/>
<path d="M0 0 C1.18178833 -0.00570007 2.36357666 -0.01140015 3.58117676 -0.01727295 C6.07543053 -0.02666526 8.5696964 -0.03323378 11.06396484 -0.03710938 C14.7785578 -0.04670657 18.49257018 -0.07774153 22.20703125 -0.109375 C43.77454884 -0.20496213 65.18767414 1.48021954 86.40625 5.453125 C87.54288086 5.66219482 88.67951172 5.87126465 89.85058594 6.08666992 C141.93748106 16.00815415 192.05171048 36.52598108 233.34375 70.203125 C233.86356445 70.62142578 234.38337891 71.03972656 234.91894531 71.47070312 C250.47674248 84.05573254 265.33817938 98.31102758 277.11816406 114.52880859 C278.39354995 116.27115848 279.704469 117.98186022 281.0234375 119.69140625 C304.50648295 150.43497064 319.3097903 186.07443659 329.34375 223.203125 C326.47042666 224.04306302 324.10654361 224.27652311 321.125 224.08203125 C320.29049316 224.03344971 319.45598633 223.98486816 318.59619141 223.93481445 C317.68788574 223.87898193 316.77958008 223.82314941 315.84375 223.765625 C242.45339283 219.96577409 164.28239177 228.85122728 107.40625 279.390625 C103.05967941 283.43306238 99.06448216 287.58039717 95.34375 292.203125 C94.56257813 293.16992188 93.78140625 294.13671875 92.9765625 295.1328125 C87.14738355 302.4635145 81.96745722 310.04653638 77.34375 318.203125 C76.93012207 318.9240332 76.51649414 319.64494141 76.09033203 320.38769531 C43.37225676 378.02984327 38.68892518 447.83569688 36.3203125 512.765625 C36.27767273 513.91679873 36.23503296 515.06797245 36.19110107 516.25403023 C35.10418404 545.96894395 34.70131694 575.69273765 34.29162598 605.42315674 C33.10571115 691.15042376 33.10571115 691.15042376 29.53125 732.328125 C29.44726959 733.3232309 29.36328918 734.31833679 29.27676392 735.34359741 C23.96058479 797.93799383 12.58223465 861.14469722 -14.65625 918.203125 C-15.26218994 919.49911621 -15.26218994 919.49911621 -15.88037109 920.82128906 C-28.24375126 947.18638689 -44.34638068 971.42572409 -63.65625 993.203125 C-64.51347656 994.17121094 -65.37070313 995.13929688 -66.25390625 996.13671875 C-76.95192957 1008.0006533 -88.05998193 1019.34819351 -100.65625 1029.203125 C-101.74980458 1030.10646695 -102.84081089 1031.01289974 -103.9296875 1031.921875 C-141.77149551 1063.27875906 -187.50879226 1084.2855019 -233.65625 1100.203125 C-234.67138672 1100.55777832 -235.68652344 1100.91243164 -236.73242188 1101.27783203 C-259.47859078 1109.118543 -283.08699726 1111.99428768 -306.90625 1114.453125 C-308.1135376 1114.57788712 -308.1135376 1114.57788712 -309.34521484 1114.70516968 C-328.41822113 1116.64687785 -347.36090706 1117.41146757 -366.53125 1117.390625 C-367.56394012 1117.39002075 -368.59663025 1117.3894165 -369.66061401 1117.38879395 C-386.07082477 1117.36281464 -402.32821457 1116.98983836 -418.65625 1115.203125 C-419.8431543 1115.07421875 -421.03005859 1114.9453125 -422.25292969 1114.8125 C-457.86511438 1110.79461967 -492.48542662 1102.9061717 -525.65625 1089.203125 C-526.82075684 1088.72407715 -526.82075684 1088.72407715 -528.00878906 1088.23535156 C-566.20091542 1072.34213464 -602.55424832 1046.33407575 -627.65625 1013.203125 C-628.06617188 1012.67493164 -628.47609375 1012.14673828 -628.8984375 1011.60253906 C-651.09636205 982.9521113 -678.65625 937.41798577 -678.65625 900.203125 C-677.76881104 900.13843018 -676.88137207 900.07373535 -675.96704102 900.00708008 C-592.73514928 893.78857473 -504.14922545 873.50651116 -447.15234375 807.46044922 C-444.32045888 804.04308952 -441.62697976 800.53043946 -438.97851562 796.96972656 C-437.65758935 795.20491442 -436.30843163 793.46506014 -434.953125 791.7265625 C-377.91774 717.59485147 -368.94535139 612.73391037 -356.65625 481.515625 C-339.29312141 292.57781404 -339.29312141 292.57781404 -291.65869141 184.13574219 C-290.59867083 182.09211753 -289.58510493 180.02927302 -288.57421875 177.9609375 C-278.95176274 158.59634841 -266.46080783 139.84708185 -252.65625 123.203125 C-252.2118457 122.6654248 -251.76744141 122.12772461 -251.30957031 121.57373047 C-235.68487482 102.75672039 -218.83733133 85.26996042 -199.31640625 70.47363281 C-197.72569917 69.25627404 -196.15905721 68.00766239 -194.59375 66.7578125 C-140.02827764 23.46734846 -69.49322953 0.26921513 0 0 Z " fill="#6ABF3D" transform="translate(2057.65625,-0.203125)"/>
<path d="M0 0 C1.13791992 0.24943359 1.13791992 0.24943359 2.29882812 0.50390625 C21.1572886 4.75059877 38.99354162 11.88257954 56 21 C57.0523584 21.55228271 57.0523584 21.55228271 58.12597656 22.11572266 C70.37032685 28.55395134 81.75075163 35.96186781 93 44 C93.61214355 44.42748535 94.22428711 44.8549707 94.85498047 45.29541016 C107.73103057 54.31122855 118.10334568 66.07578368 127.84765625 78.32421875 C129.78868792 80.73729805 131.79115817 83.08316091 133.82202148 85.4206543 C141.42293164 94.21205208 148.2402445 103.55416792 155 113 C155.64130859 113.89541504 156.28261719 114.79083008 156.94335938 115.71337891 C184.89698883 154.91882712 208.11873118 197.28270803 231.5078125 239.30078125 C238.9195299 252.60083454 246.47169299 265.80764136 254.19921875 278.92675781 C256.0134166 282.02289698 257.80504175 285.13126457 259.59375 288.2421875 C267.3780666 301.69199454 275.63942145 314.7523485 284.25 327.6875 C284.99355743 328.808078 284.99355743 328.808078 285.75213623 329.95129395 C294.77216035 343.51667417 304.29273993 356.70998486 314.625 369.3125 C315.1607666 369.96927734 315.6965332 370.62605469 316.24853516 371.30273438 C320.29012021 376.22041682 324.48415192 380.96067186 328.8125 385.62890625 C330.71821218 387.69456213 332.5543201 389.79732579 334.375 391.9375 C341.58476221 400.22105658 349.54927267 407.99276341 358 415 C358.53544434 415.44923828 359.07088867 415.89847656 359.62255859 416.36132812 C374.18888191 428.55638951 389.39027931 439.73803243 406 449 C407.23266602 449.68811768 407.23266602 449.68811768 408.49023438 450.39013672 C423.19883394 458.51307599 438.24955911 465.16741486 454 471 C454.79148437 471.29600098 455.58296875 471.59200195 456.3984375 471.89697266 C538.55503874 502.21231996 629.35977308 493.69076318 814 434 C814.97243652 433.57235352 815.94487305 433.14470703 816.94677734 432.70410156 C846.68125128 419.51651047 876.30249995 405.08142564 904.33447266 388.56152344 C907.28650927 386.83215668 910.25667392 385.13697861 913.23046875 383.4453125 C938.29504529 369.16283019 962.53365026 353.83084761 986.45445251 337.72819519 C990.90248091 334.73405051 995.36512196 331.76299868 999.83789062 328.8059082 C1009.02670914 322.72464518 1018.0383535 316.4102371 1027 310 C1027.71091797 309.49388184 1028.42183594 308.98776367 1029.15429688 308.46630859 C1039.91767296 300.79994166 1050.47382068 292.88713418 1060.9609375 284.84765625 C1064.71527864 281.9719756 1068.49597792 279.13596473 1072.296875 276.32226562 C1079.30014303 271.13284402 1086.07698795 265.72149143 1092.77734375 260.14672852 C1097.21196376 256.4588683 1101.69538131 252.8508674 1106.25 249.3125 C1111.37487957 245.32470081 1116.36867217 241.20934203 1121.30639648 236.99243164 C1125.64468942 233.28748557 1130.05415974 229.67672346 1134.484375 226.08203125 C1137.54962999 223.54510437 1140.50887882 220.90350195 1143.44140625 218.21484375 C1145 217 1145 217 1147 217 C1144.3245025 228.44464443 1141.02071014 239.55876556 1137.25 250.6875 C1136.98510773 251.47436188 1136.72021545 252.26122375 1136.44729614 253.07192993 C1114.51448065 318.19138779 1082.11722057 378.96706272 1041 434 C1040.56816406 434.57814453 1040.13632813 435.15628906 1039.69140625 435.75195312 C1027.31822038 452.2302614 1014.15173137 468.26276698 1000.265625 483.48828125 C998.36942862 485.59044379 996.50317497 487.71246693 994.64453125 489.84765625 C985.05147053 500.82740374 974.85590212 511.24291483 964.5625 521.5625 C963.63945068 522.4901416 962.71640137 523.4177832 961.76538086 524.37353516 C957.24714128 528.8815571 952.67843281 533.25495206 947.83422852 537.41088867 C944.8705192 539.9785426 942.03949701 542.68478631 939.1875 545.375 C934.22161297 550.02189776 929.14749092 554.44295448 923.8359375 558.6953125 C921.14908437 560.87884328 918.52652993 563.11888254 915.91186523 565.38745117 C909.44113816 571.00060136 902.81538801 576.34528393 895.97460938 581.50244141 C893.6659453 583.25334959 891.37201951 585.02275656 889.078125 586.79296875 C879.32499194 594.30391992 869.51302002 601.63854246 859.27636719 608.47753906 C856.64975474 610.23424811 854.03225165 612.00420036 851.4140625 613.7734375 C785.66789327 658.05919548 715.08404748 692.72260602 640 718 C639.36201477 718.21615967 638.72402954 718.43231934 638.06671143 718.6550293 C600.97221222 731.21108553 562.58283704 740.38273733 524 747 C522.98531647 747.17535278 522.98531647 747.17535278 521.95013428 747.35424805 C501.44727769 750.88280937 480.85942598 753.23802302 460.15234375 755.203125 C459.46480515 755.26955704 458.77726654 755.33598907 458.06889343 755.4044342 C445.04781295 756.60610846 432.0628532 757.16476857 418.98828125 757.203125 C417.49747692 757.21014778 416.00667289 757.2172346 414.51586914 757.22438049 C409.78140831 757.24376761 405.04699653 757.24881427 400.3125 757.25 C399.50579739 757.25044186 398.69909477 757.25088371 397.86794662 757.25133896 C374.4967754 757.25805257 351.28163975 757.11539969 328.05285645 754.25 C325.89547868 753.98727123 323.7366937 753.74033572 321.57714844 753.49609375 C243.40198383 744.57309476 165.92846802 721.39484577 95 681 C94.27135742 680.58862793 93.54271484 680.17725586 92.79199219 679.75341797 C63.41949291 663.13887665 35.55161317 643.52019014 9.96484375 621.52734375 C7.05753648 619.04904625 4.10127699 616.64475204 1.125 614.25 C-2.54935351 611.26159671 -5.95692153 608.176515 -9.23608398 604.76293945 C-10.91233187 603.08761959 -12.64341599 601.56390475 -14.453125 600.03515625 C-19.69294968 595.48014629 -24.57631462 590.57372452 -29.47290039 585.6574707 C-31.05959946 584.06541034 -32.65157742 582.4787701 -34.24414062 580.89257812 C-39.70757322 575.43271494 -44.97968759 569.87331523 -50 564 C-51.61967817 562.22429779 -53.24411718 560.45291693 -54.875 558.6875 C-58.91279322 554.25503526 -62.77307434 549.72257823 -66.53515625 545.0546875 C-68.34085175 542.8168842 -70.15979312 540.59518101 -71.99609375 538.3828125 C-81.24971046 527.19173739 -89.71705933 515.5217667 -98.0625 503.64453125 C-98.55927246 502.9376416 -99.05604492 502.23075195 -99.56787109 501.50244141 C-100.56386026 500.08475934 -101.55897858 498.66646506 -102.55322266 497.24755859 C-105.43964979 493.14699188 -108.40250681 489.12078614 -111.44775391 485.13696289 C-118.85578258 475.44291029 -125.51029282 465.32721314 -132 455 C-132.40814941 454.35240723 -132.81629883 453.70481445 -133.23681641 453.03759766 C-184.13307514 371.74036599 -209.28736695 272.56022307 -196 177 C-195.86078125 175.98389648 -195.7215625 174.96779297 -195.578125 173.92089844 C-193.3500597 158.2883384 -189.49803923 143.12305749 -185 128 C-184.61618164 126.7001416 -184.61618164 126.7001416 -184.22460938 125.37402344 C-172.96750736 88.2018251 -151.10634254 50.82797827 -120 27 C-119.05382812 26.24976563 -118.10765625 25.49953125 -117.1328125 24.7265625 C-105.32339276 15.54841931 -93.01278698 9.03678502 -79 4 C-77.94296875 3.61972656 -76.8859375 3.23945312 -75.796875 2.84765625 C-51.70371373 -5.17330824 -24.68297342 -5.55312245 0 0 Z " fill="#22466F" transform="translate(386,1069)"/>
<path d="M0 0 C1.34312256 0.60110596 1.34312256 0.60110596 2.71337891 1.21435547 C46.18211078 20.83358926 87.43989157 47.94516713 122.3125 80.49609375 C124.81949695 82.83182783 127.36920532 85.10716287 129.9375 87.375 C138.8361092 95.36939568 147.27587353 103.86552348 155 113 C155.84433594 113.95519531 156.68867188 114.91039062 157.55859375 115.89453125 C170.76339313 130.89141055 182.53820527 146.98290211 193 164 C193.41556152 164.6703125 193.83112305 165.340625 194.25927734 166.03125 C227.45308364 219.86603915 245.36757549 283.80877218 231.40771484 346.62207031 C224.87570426 374.08973746 211.38808837 399.49765367 192 420 C190.87015459 421.3292299 189.74495361 422.66242507 188.625 424 C176.57633492 437.72285317 160.88142222 449.12565847 145 458 C144.20803223 458.44311523 143.41606445 458.88623047 142.60009766 459.34277344 C124.07456316 469.58948511 104.91448084 477.74236108 84.6875 484 C83.33785156 484.4182605 83.33785156 484.4182605 81.9609375 484.8449707 C70.05546898 488.36700514 58.49325118 489.37641273 46.125 489.3125 C45.02100861 489.30976578 45.02100861 489.30976578 43.89471436 489.30697632 C-27.02224217 489.01456079 -95.84952544 465.13862461 -160.0670166 436.84863281 C-161.92057281 436.03487072 -163.77807762 435.23012057 -165.63574219 434.42578125 C-185.62868362 425.75361764 -205.12787669 416.07848855 -224.61954117 406.34504318 C-226.65544797 405.32850375 -228.69189125 404.31304493 -230.72836304 403.29763794 C-246.23564934 395.55964376 -261.60553035 387.63272252 -276.76742554 379.23178101 C-279.86355287 377.52355093 -282.97839158 375.85312229 -286.09765625 374.1875 C-287.0923291 373.65592285 -288.08700195 373.1243457 -289.11181641 372.57666016 C-290.08554199 372.0563623 -291.05926758 371.53606445 -292.0625 371 C-300.94917697 366.23894855 -309.75896063 361.36933573 -318.44946289 356.2578125 C-332.30161398 348.19411715 -346.38958318 342.07366922 -361.5 336.8125 C-363.34933945 336.16177906 -365.19862209 335.51089669 -367.04785156 334.85986328 C-455.35541323 303.89828362 -546.48157822 281.20502666 -908.65316772 281.86172485 C-916.08677941 283.03368215 -923.5341098 284.05581404 -931 285 C-931 284.34 -931 283.68 -931 283 C-929.53125 281.5546875 -929.53125 281.5546875 -927.5 279.875 C-924.53322639 277.35742098 -921.72425751 274.77831024 -919 272 C-915.91754495 268.87589016 -912.72490228 265.97298912 -909.3984375 263.11328125 C-906.20853677 260.30263582 -903.10728707 257.40136278 -900 254.5 C-895.69468076 250.48392847 -891.37032219 246.5087066 -886.91015625 242.6640625 C-884.63795489 240.68459874 -882.41540128 238.6541683 -880.1875 236.625 C-875.81714316 232.67628555 -871.29696921 228.9537279 -866.71875 225.25 C-864.07852271 223.06498431 -861.5327028 220.80828609 -859 218.5 C-853.82812206 213.79383618 -848.4379003 209.39333188 -843 205 C-841.26990474 203.58446752 -839.54074945 202.16778547 -837.8125 200.75 C-835.8751893 199.16643505 -833.93766862 197.58312697 -832 196 C-831.39494629 195.5045166 -830.78989258 195.0090332 -830.16650391 194.49853516 C-821.78853953 187.64042078 -813.35988012 180.87880266 -804.73974609 174.32617188 C-802.84911393 172.88498272 -800.96520624 171.4352934 -799.08203125 169.984375 C-789.25012038 162.41852073 -779.31592198 155.00170541 -769.29833984 147.68359375 C-767.17832051 146.13062441 -765.06678929 144.56686291 -762.95703125 143 C-749.64307367 133.17878238 -735.81297107 124.1139291 -722.01882935 114.98768616 C-718.03469001 112.35157905 -714.05882104 109.70361121 -710.08912659 107.04580688 C-662.66705056 75.31662476 -612.06219704 47.33496855 -560 24 C-558.84306641 23.47873535 -557.68613281 22.9574707 -556.49414062 22.42041016 C-484.05058625 -10.07529894 -407.60728881 -33.15393151 0 0 Z " fill="#27A5DF" transform="translate(2861,918)"/>
<path d="M0 0 C4.73020681 3.95156966 9.21299234 8.06429822 13.5625 12.4296875 C14.15748291 13.02371368 14.75246582 13.61773987 15.36547852 14.22976685 C16.61369554 15.47730842 17.86067099 16.72609339 19.10644531 17.97607422 C20.99173147 19.86670801 22.88228651 21.75195347 24.7734375 23.63671875 C30.20636251 29.0669542 35.57876823 34.48529282 40.55859375 40.34033203 C42.8991569 43.03530973 45.44553696 45.50986406 48 48 C51.96663765 51.91253596 55.74585151 55.89561196 59.359375 60.140625 C61.16147789 62.18300828 63.05938947 64.08901711 65 66 C68.10246002 69.06117253 70.98106424 72.23142268 73.8203125 75.53515625 C76.81343291 78.91984976 79.90826114 82.20550434 83 85.5 C87.17884816 89.95667687 91.32150674 94.42489352 95.3046875 99.05859375 C97.45155051 101.51709816 99.66537132 103.910289 101.875 106.3125 C105.18336914 109.93523905 108.36012358 113.61692891 111.4375 117.4375 C114.65945075 121.43226434 118.00677983 125.24531667 121.5 129 C125.70901421 133.5285486 129.67442743 138.19975993 133.55078125 143.015625 C136.48646859 146.59276236 139.51865517 150.07742374 142.5625 153.5625 C146.86668508 158.49841841 151.07013942 163.4843019 155.125 168.62890625 C157.13724325 171.17355553 159.18950129 173.68178638 161.25 176.1875 C168.99847441 185.64303934 176.65516097 195.17060182 184.07666016 204.88549805 C186.45661423 207.99987276 188.85568878 211.09758117 191.27734375 214.1796875 C198.8895187 223.87709835 206.23427754 233.72436002 213.39550781 243.75878906 C215.52326183 246.73091047 217.67192702 249.68761785 219.82006836 252.64501953 C222.55898624 256.42121212 225.28161127 260.20901112 228 264 C228.52609863 264.73283203 229.05219727 265.46566406 229.59423828 266.22070312 C245.9971604 289.14768567 261.45354202 312.85459896 276 337 C276.51401367 337.85078125 277.02802734 338.7015625 277.55761719 339.578125 C299.21653674 375.53007003 318.53459423 412.40776144 335 451 C335.48839355 452.1442041 335.97678711 453.2884082 336.47998047 454.46728516 C355.70346128 499.98617045 369.26511216 547.736416 374 597 C374.19722656 598.96259766 374.19722656 598.96259766 374.3984375 600.96484375 C379.50343328 662.29377954 365.59607506 726.57412338 325.29296875 774.3671875 C306.45062762 796.00217544 285.44722255 813.51187989 260 827 C259.16114258 827.44939941 258.32228516 827.89879883 257.45800781 828.36181641 C231.65963796 841.98594616 203.68115684 850.17584814 175 855 C174.03481445 855.17499023 173.06962891 855.34998047 172.07519531 855.53027344 C141.73860892 860.90005126 107.28641798 860.43023759 77 855 C75.82888672 854.79068848 74.65777344 854.58137695 73.45117188 854.36572266 C58.01416055 851.52407375 42.87474605 848.02283509 28 843 C27.13922852 842.71431152 26.27845703 842.42862305 25.39160156 842.13427734 C-3.06025122 832.59708439 -29.60218978 818.85322364 -53 800 C-53.59474121 799.52095215 -54.18948242 799.0419043 -54.80224609 798.54833984 C-98.86893304 762.6659866 -124.98755185 713.74505465 -131.59375 657.34375 C-132.25991027 650.08174531 -132.24423121 642.78676888 -132.25 635.5 C-132.25067474 634.7302182 -132.25134949 633.9604364 -132.25204468 633.16732788 C-132.18485554 584.56823338 -118.08376101 537.90824507 -98 494 C-97.35442139 492.58122559 -97.35442139 492.58122559 -96.69580078 491.13378906 C-89.9019294 476.29659869 -82.2435266 462.07767696 -74 448 C-73.49855469 447.13777832 -72.99710938 446.27555664 -72.48046875 445.38720703 C-58.34988114 421.14802955 -42.19708392 398.26703054 -25.51953125 375.73046875 C-24.96362305 374.97556152 -24.40771484 374.2206543 -23.83496094 373.44287109 C-22.51984757 371.69206956 -21.17580508 369.96285431 -19.81347656 368.24853516 C-14.08470815 360.9367857 -9.91674248 353.45512149 -6.125 345 C-5.52179204 343.67783102 -4.91843597 342.3557296 -4.31494141 341.03369141 C19.87859856 287.64746694 39.91871601 227.42950552 40.203125 168.3046875 C40.21013931 167.322155 40.21715363 166.3396225 40.22438049 165.32731628 C40.24177597 162.17649694 40.24823222 159.02586559 40.25 155.875 C40.25067474 154.79797821 40.25134949 153.72095642 40.25204468 152.61129761 C40.23634347 136.85153913 39.80870198 121.54461735 37 106 C36.75056641 104.51910889 36.75056641 104.51910889 36.49609375 103.00830078 C30.50715849 67.82330615 18.14221305 35.30282491 1.01879883 4.09350586 C0 2 0 2 0 0 Z " fill="#C3A425" transform="translate(1860,1314)"/>
<path d="M0 0 C0.8974292 0.44746582 1.7948584 0.89493164 2.71948242 1.35595703 C5 3 5 3 5.92578125 5.26171875 C6.05339844 6.06222656 6.18101562 6.86273438 6.3125 7.6875 C6.45300781 8.49574219 6.59351562 9.30398437 6.73828125 10.13671875 C6.82464844 10.75160156 6.91101562 11.36648437 7 12 C6.35901367 11.96970703 5.71802734 11.93941406 5.05761719 11.90820312 C-72.29320145 8.35121465 -154.4076347 13.40145122 -214.9375 67.1875 C-219.28407059 71.22993738 -223.27926784 75.37727217 -227 80 C-227.78117187 80.96679688 -228.56234375 81.93359375 -229.3671875 82.9296875 C-235.19636645 90.2603895 -240.37629278 97.84341138 -245 106 C-245.41362793 106.7209082 -245.82725586 107.44181641 -246.25341797 108.18457031 C-278.97149324 165.82671827 -283.65482482 235.63257188 -286.0234375 300.5625 C-286.06607727 301.71367373 -286.10871704 302.86484745 -286.15264893 304.05090523 C-287.23956596 333.76581895 -287.64243306 363.48961265 -288.05212402 393.22003174 C-289.23803885 478.94729876 -289.23803885 478.94729876 -292.8125 520.125 C-292.89648041 521.1201059 -292.98046082 522.11521179 -293.06698608 523.14047241 C-298.38316521 585.73486883 -309.76151535 648.94157222 -337 706 C-337.40395996 706.86399414 -337.80791992 707.72798828 -338.22412109 708.61816406 C-350.58750126 734.98326189 -366.69013068 759.22259909 -386 781 C-386.85722656 781.96808594 -387.71445313 782.93617188 -388.59765625 783.93359375 C-399.29567957 795.7975283 -410.40373193 807.14506851 -423 817 C-424.09355458 817.90334195 -425.18456089 818.80977474 -426.2734375 819.71875 C-464.11524551 851.07563406 -509.85254226 872.0823769 -556 888 C-557.01513672 888.35465332 -558.03027344 888.70930664 -559.07617188 889.07470703 C-581.82234078 896.915418 -605.43074726 899.79116268 -629.25 902.25 C-630.0548584 902.33317474 -630.8597168 902.41634949 -631.68896484 902.50204468 C-650.76197113 904.44375285 -669.70465706 905.20834257 -688.875 905.1875 C-689.90769012 905.18689575 -690.94038025 905.1862915 -692.00436401 905.18566895 C-708.41457477 905.15968964 -724.67196457 904.78671336 -741 903 C-742.1869043 902.87109375 -743.37380859 902.7421875 -744.59667969 902.609375 C-772.77515167 899.43018986 -800.00668341 893.67256957 -827 885 C-828.3312793 884.58983643 -828.3312793 884.58983643 -829.68945312 884.17138672 C-831.99227505 883.457983 -834.27815655 882.70770009 -836.5625 881.9375 C-837.78066406 881.53402344 -838.99882813 881.13054688 -840.25390625 880.71484375 C-843 879 -843 879 -844.40234375 875.31640625 C-844.59957031 874.22199219 -844.79679687 873.12757813 -845 872 C-843.15129955 870.15129955 -840.11419565 870.60431871 -837.625 870.421875 C-836.25002656 870.31540288 -834.87511032 870.20819019 -833.50024414 870.1003418 C-832.76806671 870.04389496 -832.03588928 869.98744812 -831.28152466 869.92929077 C-796.41020688 867.18897173 -762.44380549 860.99612611 -728.875 851.0625 C-727.63169922 850.70381836 -727.63169922 850.70381836 -726.36328125 850.33789062 C-720.67246722 848.6502392 -715.38154292 846.48943359 -710 844 C-708.64250996 843.41100105 -707.28315228 842.82628608 -705.921875 842.24609375 C-680.44758332 831.26034347 -657.80409615 817.89930159 -637.32421875 799.078125 C-635.72782198 797.65075848 -634.08314006 796.2761632 -632.40234375 794.94921875 C-630.30646975 793.24866407 -628.61663227 791.6096018 -626.875 789.5625 C-626.27945312 788.86253906 -625.68390625 788.16257812 -625.0703125 787.44140625 C-624.04550781 786.23291016 -624.04550781 786.23291016 -623 785 C-622.17242188 784.06027344 -621.34484375 783.12054687 -620.4921875 782.15234375 C-561.15191836 714.34870229 -551.15809709 616.76898061 -542.51733398 457.67553711 C-539.29941515 386.90645036 -539.29941515 386.90645036 -537 360 C-536.90102417 358.82966217 -536.90102417 358.82966217 -536.80004883 357.63568115 C-533.43246838 318.15110211 -528.31949814 278.55051327 -519 240 C-518.72720215 238.87126465 -518.4544043 237.7425293 -518.17333984 236.57958984 C-504.65891707 181.7554091 -481.57499492 123.98177081 -442.16015625 82.30078125 C-440.32425697 80.34536593 -438.57311207 78.35261235 -436.82421875 76.3203125 C-426.58932362 64.58257201 -415.34019268 53.50336678 -403 44 C-401.84100936 43.0554362 -400.68496445 42.10725107 -399.53125 41.15625 C-391.03549791 34.18041586 -382.28462699 27.88003603 -373 22 C-372.31599121 21.56333008 -371.63198242 21.12666016 -370.92724609 20.67675781 C-349.38950634 6.98839336 -327.40113718 -3.43085971 -303.14160156 -11.30224609 C-300.99512637 -12.00158788 -298.85247013 -12.71145536 -296.7109375 -13.42578125 C-295.96440918 -13.67416748 -295.21788086 -13.92255371 -294.44873047 -14.1784668 C-292.69813068 -14.76578168 -290.95001952 -15.36053547 -289.20361328 -15.96020508 C-202.93170048 -45.33612304 -97.12474014 -43.98455532 0 0 Z " fill="#009A4B" transform="translate(2380,212)"/>
<path d="M0 0 C0.76642822 0.61415771 0.76642822 0.61415771 1.54833984 1.24072266 C15.37332056 12.37125585 27.43681878 24.744326 38 39 C38.85023745 40.11980911 39.7004977 41.2396009 40.55078125 42.359375 C71.02716435 83.1067065 82.01855605 132.31130496 92.51965332 181.00650024 C97.87094421 205.7936577 103.77399913 230.41917662 110 255 C110.2281842 255.90435791 110.45636841 256.80871582 110.69146729 257.74047852 C134.29341205 351.26459193 164.73322178 443.26293857 226 583 C226.49709473 584.05203613 226.99418945 585.10407227 227.50634766 586.18798828 C238.53924214 609.47884658 249.87712713 632.61268567 262.41210938 655.13623047 C264.11636623 658.20986714 265.80112553 661.29371877 267.484375 664.37890625 C275.93236377 679.80380735 284.86682598 694.85962817 294.07080078 709.84082031 C296.31061684 713.50865374 298.50596424 717.20123176 300.69555664 720.89916992 C306.28597007 730.33746826 312.19065786 739.53891914 318.27783203 748.6652832 C318.89255371 749.59300537 319.50727539 750.52072754 320.140625 751.4765625 C320.69266602 752.30236816 321.24470703 753.12817383 321.81347656 753.97900391 C323 756 323 756 323 758 C269.70033974 742.98963056 217.2612541 715.2328156 170 687 C168.21909085 685.94603843 166.43784988 684.89263731 164.65625 683.83984375 C153.93311365 677.48095175 143.40976311 670.85855959 133 664 C132.03835938 663.37222656 131.07671875 662.74445312 130.0859375 662.09765625 C108.31133463 647.75904889 87.06153449 632.56855433 66.66943359 616.32226562 C64.96123707 614.96929804 63.24225856 613.63128067 61.51953125 612.296875 C54.87701437 607.14307096 48.39797704 601.84789882 42.04345703 596.34228516 C38.53815696 593.30659466 34.98798803 590.34551476 31.375 587.4375 C26.31759522 583.33347933 21.53867988 578.97686011 16.765625 574.55078125 C14.55944053 572.51598117 12.33367739 570.52353762 10.0625 568.5625 C2.03672484 561.59230696 -5.74513504 554.34707804 -13.19921875 546.76953125 C-14.94826145 545.0508407 -16.75560498 543.46103409 -18.625 541.875 C-27.07677422 534.59475884 -35.02909937 526.5023053 -42.23046875 517.98828125 C-44.54772592 515.38456403 -47.0202118 512.9470175 -49.5 510.5 C-53.2259715 506.81851958 -56.79856239 503.06704861 -60.19921875 499.08203125 C-62.37324202 496.56846422 -64.62390488 494.13223771 -66.875 491.6875 C-71.02245258 487.14475315 -74.93232695 482.45880038 -78.79296875 477.671875 C-80.91623338 475.1014095 -83.11811849 472.64080637 -85.375 470.1875 C-90.43394507 464.62793016 -95.01001203 458.73373489 -99.60595703 452.79248047 C-100.9436021 451.07251723 -102.29458922 449.36427159 -103.65234375 447.66015625 C-166.21382599 369.04603193 -220.08352188 275.72006075 -237.75 102.703125 C-234.79991311 78.88697413 -228.711184 56.02133027 -217 35 C-216.65211426 34.36368652 -216.30422852 33.72737305 -215.94580078 33.07177734 C-210.6356866 23.44066407 -204.44984087 15.07807763 -197 7 C-196.13632812 6.05382812 -195.27265625 5.10765625 -194.3828125 4.1328125 C-142.77811867 -49.92195582 -55.61569188 -45.04349878 0 0 Z " fill="#27A5DF" transform="translate(1100,427)"/>
<path d="M0 0 C2.70135301 2.44499479 5.25414177 5.02439164 7.78613281 7.64257812 C9.4761149 9.33256021 11.23136915 10.85021775 13.07519531 12.36914062 C16.17976295 14.98058902 18.75951036 17.8334337 21.37988281 20.92382812 C23.55413183 23.41664843 25.80638373 25.8142584 28.08105469 28.21484375 C34.54577256 35.05498077 40.46502597 42.15542579 46.17431641 49.63232422 C47.50433926 51.35829697 48.85693261 53.06348957 50.21972656 54.76367188 C65.21172338 73.4922513 78.47218889 93.57020841 90.97338867 114.02636719 C91.9886164 115.6855597 93.00964003 117.34122066 94.03662109 118.99316406 C94.98133065 120.51382457 95.91330337 122.04251892 96.82861328 123.58105469 C100.83380384 130.02801248 105.96410543 135.21205003 111.35253906 140.49023438 C112.88512828 141.99162585 114.40675497 143.50345537 115.92675781 145.01757812 C121.28761054 150.33596142 126.76227806 155.47139873 132.51269531 160.36914062 C133.60770009 161.32995207 134.70149387 162.29214577 135.79394531 163.25585938 C178.20234085 200.3027993 229.66931532 229.49247085 285.51269531 239.36914062 C286.8785376 239.61470703 286.8785376 239.61470703 288.27197266 239.86523438 C316.01041974 244.62855117 344.76775506 243.37532247 372.51269531 239.36914062 C369.94402449 242.38562792 367.09882004 243.64970464 363.50488281 245.24023438 C362.88884689 245.51420044 362.27281097 245.7881665 361.6381073 246.07043457 C359.55832114 246.991138 357.47351138 247.89968642 355.38769531 248.80664062 C354.65485321 249.12738556 353.92201111 249.44813049 353.16696167 249.77859497 C317.10770296 265.54487673 280.52968925 280.01657261 243.51269531 293.36914062 C242.68074646 293.67037842 241.84879761 293.97161621 240.99163818 294.28198242 C167.41057476 320.92380443 91.48048536 342.36313972 13.70019531 352.18164062 C12.91999023 352.28109985 12.13978516 352.38055908 11.3359375 352.48303223 C-12.3030707 355.45798384 -35.85345307 356.75283809 -59.67480469 356.68164062 C-60.91745087 356.68015015 -62.16009705 356.67865967 -63.44039917 356.67712402 C-82.30537674 356.63654799 -100.79896663 356.07897856 -119.48730469 353.36914062 C-121.06463379 353.15233643 -121.06463379 353.15233643 -122.67382812 352.93115234 C-180.51052085 344.83401536 -239.55036387 320.79740035 -275.75683594 273.06835938 C-283.92239223 262.09289961 -290.86937856 250.85498145 -296.48730469 238.36914062 C-296.82503906 237.62067871 -297.16277344 236.8722168 -297.51074219 236.10107422 C-321.38151398 182.22357566 -317.26497386 121.19467406 -296.7746582 66.99414062 C-277.99616527 18.83692358 -242.35348533 -25.53326668 -194.44165039 -46.91870117 C-181.01432396 -52.67092012 -167.00874353 -56.83396191 -152.48730469 -58.63085938 C-151.60171875 -58.74171875 -150.71613281 -58.85257813 -149.80371094 -58.96679688 C-92.79789509 -65.08933733 -41.38447984 -36.56322465 0 0 Z " fill="#FE0000" transform="translate(1046.4873046875,1040.630859375)"/>
<path d="M0 0 C0.75700195 0.17740723 1.51400391 0.35481445 2.29394531 0.53759766 C22.48760301 5.44248485 42.17021999 14.82003655 59 27 C59.63164062 27.45342773 60.26328125 27.90685547 60.9140625 28.37402344 C75.56609961 38.95997882 89.14163903 50.61412736 102.12353516 63.18603516 C103.30316701 64.32637664 104.48943367 65.45993433 105.68505859 66.58349609 C126.9548807 86.69398445 138.25258036 119.17207544 145 147 C145.33668701 148.36753418 145.33668701 148.36753418 145.68017578 149.76269531 C151.53407489 174.73274231 151.94298968 204.97323213 146 230 C145.80132324 230.86222168 145.60264648 231.72444336 145.39794922 232.61279297 C137.81311347 264.70772714 123.08504837 294.64539355 102 320 C101.25621094 320.97195313 100.51242187 321.94390625 99.74609375 322.9453125 C96.35800603 326.98779723 92.15537026 330.00038022 87.9375 333.125 C87.05843994 333.77807129 86.17937988 334.43114258 85.27368164 335.10400391 C42.66251335 366.26292284 -8.54532076 381.43216172 -61.23242188 373.40576172 C-63.82912731 372.97056777 -66.41451267 372.49734207 -69 372 C-69.84224121 371.83902832 -70.68448242 371.67805664 -71.55224609 371.51220703 C-103.6009973 365.13187618 -134.53171113 351.60891783 -162 334 C-162.72155273 333.53916016 -163.44310547 333.07832031 -164.18652344 332.60351562 C-179.14352121 322.98325686 -193.40071316 312.46115534 -207 301 C-207.52239258 300.56252441 -208.04478516 300.12504883 -208.58300781 299.67431641 C-221.62116314 288.73823102 -233.94427488 277.13171336 -246 265.125 C-246.78914795 264.3405249 -247.5782959 263.5560498 -248.39135742 262.74780273 C-253.13344161 257.99260912 -257.62031658 253.0884523 -262 248 C-263.45445517 246.39231627 -264.91220895 244.78760285 -266.375 243.1875 C-271.10571502 237.93824117 -275.57083694 232.50441004 -280 227 C-280.91374442 225.87864698 -281.82782139 224.75756489 -282.7421875 223.63671875 C-303.75774034 197.76978977 -322.63629824 170.03466149 -339 141 C-339.49371094 140.13068848 -339.98742188 139.26137695 -340.49609375 138.36572266 C-390.35247673 50.22675989 -390.35247673 50.22675989 -388 7 C-384.62325629 9.55427784 -381.98254527 12.06118715 -379.4375 15.4375 C-356.03962745 45.35681349 -323.71895164 72.8662054 -285.265625 79.56640625 C-269.88486406 81.41164474 -254.03005323 80.73525755 -239 77 C-238.33162109 76.83902832 -237.66324219 76.67805664 -236.97460938 76.51220703 C-218.6945664 71.98567879 -201.64682112 63.63531942 -185 55 C-183.07559715 54.01026826 -181.15111179 53.02069696 -179.2265625 52.03125 C-169.04595806 46.78056078 -158.9171777 41.44853969 -148.875 35.9375 C-145.25186775 33.95489592 -141.62691593 31.97567391 -138 30 C-137.07509766 29.49581543 -136.15019531 28.99163086 -135.19726562 28.47216797 C-93.99990318 6.13684638 -47.34939421 -11.48025609 0 0 Z " fill="#C3A425" transform="translate(3169,1507)"/>
<path d="M0 0 C1.56864065 1.47265298 3.13156244 2.95143183 4.6875 4.4375 C5.36167969 5.03691406 6.03585937 5.63632812 6.73046875 6.25390625 C25.17693408 23.30123848 34.2613278 49.42686074 35.59716797 74.00927734 C36.71670672 104.10368939 27.53767441 132.39704912 14.71044922 159.23828125 C13.81028727 161.17352201 12.99382723 163.14723133 12.19140625 165.125 C3.66871096 184.34148368 -23.27769143 195.37483491 -41.6875 202.6328125 C-46.50697289 204.42476323 -51.38522569 205.97213193 -56.3125 207.4375 C-57.0446875 207.6634082 -57.776875 207.88931641 -58.53125 208.12207031 C-87.39571678 216.9231555 -117.83267921 218.91328498 -147.74772644 221.2558136 C-229.81802047 227.69892362 -300.78197025 241.34059388 -359.3125 303.4375 C-359.9725 304.4275 -360.6325 305.4175 -361.3125 306.4375 C-361.9725 306.4375 -362.6325 306.4375 -363.3125 306.4375 C-365.03923345 290.42933719 -365.6568069 274.55729336 -365.62817383 258.46020508 C-365.6250177 254.77069377 -365.64857664 251.0819911 -365.67382812 247.39257812 C-365.73346246 225.29833358 -363.97260082 203.35999545 -359.5625 181.6875 C-359.30718506 180.40584961 -359.05187012 179.12419922 -358.78881836 177.80371094 C-356.3457883 165.79751684 -353.14656118 154.07041453 -349.3125 142.4375 C-349.04356934 141.61958984 -348.77463867 140.80167969 -348.49755859 139.95898438 C-337.21759545 106.3191677 -319.75611572 74.31316594 -295.3125 48.4375 C-294.18220833 47.12955429 -293.05706689 45.81713752 -291.9375 44.5 C-284.13894668 35.58736763 -275.63546532 27.7250877 -266.3125 20.4375 C-265.05589401 19.42850443 -263.79939006 18.41938178 -262.54296875 17.41015625 C-247.3818173 5.37718028 -230.88183797 -4.46281889 -213.3125 -12.5625 C-212.53358398 -12.9244043 -211.75466797 -13.28630859 -210.95214844 -13.65917969 C-147.13471953 -43.00368933 -56.13961451 -49.73098272 0 0 Z " fill="#22466F" transform="translate(2542.3125,582.5625)"/>
<path d="M0 0 C-0.33 0.99 -0.66 1.98 -1 3 C-1 2.34 -1 1.68 -1 1 C-1.69335449 0.87850586 -2.38670898 0.75701172 -3.10107422 0.63183594 C-6.29767894 -0.06488067 -9.28903691 -1.04472448 -12.3828125 -2.109375 C-14.24232544 -2.7432312 -14.24232544 -2.7432312 -16.1394043 -3.38989258 C-17.11482681 -3.72339218 -17.11482681 -3.72339218 -18.10995483 -4.06362915 C-45.08072566 -13.25049563 -72.48965559 -19.91808684 -101 -22 C-102.65273926 -22.12810059 -102.65273926 -22.12810059 -104.33886719 -22.25878906 C-115.84924425 -23.07448507 -127.33811601 -23.24296408 -138.875 -23.25 C-140.38101273 -23.25101212 -140.38101273 -23.25101212 -141.91744995 -23.25204468 C-175.7963935 -23.21617621 -208.91263328 -19.46124768 -241.8984375 -11.50048828 C-244.05281793 -10.98742138 -246.21284693 -10.50650047 -248.375 -10.02734375 C-301.83223207 2.1794704 -349.77244237 26.98071095 -391 63 C-391.825 63.71285156 -392.65 64.42570312 -393.5 65.16015625 C-404.9352973 75.22246555 -415.61922792 85.99523574 -425 98 C-425.95054295 99.16357244 -426.90384331 100.32489584 -427.859375 101.484375 C-434.82435409 109.97433671 -441.13812228 118.7156136 -447 128 C-447.36657715 128.57621094 -447.7331543 129.15242187 -448.11083984 129.74609375 C-489.61664131 195.44033672 -505.25538043 271.76981926 -513 348 C-513.12906738 349.25554687 -513.25813477 350.51109375 -513.39111328 351.8046875 C-513.78775951 355.68169547 -514.17644055 359.5594245 -514.5625 363.4375 C-514.67722656 364.56406006 -514.79195312 365.69062012 -514.91015625 366.85131836 C-517.08417732 389.11187359 -518.26406978 411.46798118 -519.37768555 433.80224609 C-519.56249376 437.49987515 -519.75265708 441.19720199 -519.94335938 444.89453125 C-520.56895396 457.19294897 -521.10638458 469.4888962 -521.50390625 481.796875 C-521.92616578 494.79548448 -522.58339331 507.76907615 -523.375 520.75 C-523.4403595 521.83196655 -523.50571899 522.91393311 -523.57305908 524.02868652 C-523.97426767 530.65400109 -524.38570125 537.27861907 -524.8046875 543.90283203 C-524.98925532 546.82961625 -525.17071125 549.75657793 -525.3515625 552.68359375 C-529.53384088 619.75476485 -537.88808571 689.90008109 -570 750 C-570.34643555 750.65419922 -570.69287109 751.30839844 -571.04980469 751.98242188 C-579.37717488 767.60100274 -589.2261359 781.79203243 -601 795 C-601.45375 795.51546387 -601.9075 796.03092773 -602.375 796.56201172 C-641.07499422 840.44307761 -697.57596727 863.96147225 -754.13183594 874.46630859 C-755.9833296 874.81082384 -757.83312581 875.16465237 -759.68066406 875.52978516 C-774.18823551 878.39319225 -788.79287113 879.90748317 -803.5 881.3125 C-804.93093491 881.45245895 -804.93093491 881.45245895 -806.39077759 881.59524536 C-809.14509065 881.86157755 -811.90028163 882.11472509 -814.65625 882.36328125 C-815.89093269 882.48319427 -815.89093269 882.48319427 -817.15055847 882.60552979 C-825.38587642 883.3139374 -832.60548813 882.15919656 -840.375 879.375 C-841.08527344 879.15199219 -841.79554687 878.92898438 -842.52734375 878.69921875 C-844.5859375 877.9609375 -844.5859375 877.9609375 -848 876 C-849.4765625 872.2890625 -849.4765625 872.2890625 -850 869 C-848.15129955 867.15129955 -845.11419565 867.60431871 -842.625 867.421875 C-841.25002656 867.31540288 -839.87511032 867.20819019 -838.50024414 867.1003418 C-837.76806671 867.04389496 -837.03588928 866.98744812 -836.28152466 866.92929077 C-801.41020688 864.18897173 -767.44380549 857.99612611 -733.875 848.0625 C-732.63169922 847.70381836 -732.63169922 847.70381836 -731.36328125 847.33789062 C-725.67246722 845.6502392 -720.38154292 843.48943359 -715 841 C-713.64250996 840.41100105 -712.28315228 839.82628608 -710.921875 839.24609375 C-685.44758332 828.26034347 -662.80409615 814.89930159 -642.32421875 796.078125 C-640.72782198 794.65075848 -639.08314006 793.2761632 -637.40234375 791.94921875 C-635.30646975 790.24866407 -633.61663227 788.6096018 -631.875 786.5625 C-631.27945312 785.86253906 -630.68390625 785.16257812 -630.0703125 784.44140625 C-629.04550781 783.23291016 -629.04550781 783.23291016 -628 782 C-627.17242188 781.06027344 -626.34484375 780.12054687 -625.4921875 779.15234375 C-566.15191836 711.34870229 -556.15809709 613.76898061 -547.51733398 454.67553711 C-544.29941515 383.90645036 -544.29941515 383.90645036 -542 357 C-541.90102417 355.82966217 -541.90102417 355.82966217 -541.80004883 354.63568115 C-538.43246838 315.15110211 -533.31949814 275.55051327 -524 237 C-523.72720215 235.87126465 -523.4544043 234.7425293 -523.17333984 233.57958984 C-509.65891707 178.7554091 -486.57499492 120.98177081 -447.16015625 79.30078125 C-445.32425697 77.34536593 -443.57311207 75.35261235 -441.82421875 73.3203125 C-431.58932362 61.58257201 -420.34019268 50.50336678 -408 41 C-406.84100936 40.0554362 -405.68496445 39.10725107 -404.53125 38.15625 C-396.03549791 31.18041586 -387.28462699 24.88003603 -378 19 C-377.31599121 18.56333008 -376.63198242 18.12666016 -375.92724609 17.67675781 C-354.38950634 3.98839336 -332.40113718 -6.43085971 -308.14160156 -14.30224609 C-305.99512637 -15.00158788 -303.85247013 -15.71145536 -301.7109375 -16.42578125 C-300.96440918 -16.67416748 -300.21788086 -16.92255371 -299.44873047 -17.1784668 C-297.69813068 -17.76578168 -295.95001952 -18.36053547 -294.20361328 -18.96020508 C-207.93170048 -48.33612304 -102.12474014 -46.98455532 0 0 Z " fill="#0D6B42" transform="translate(2385,215)"/>
<path d="M0 0 C0.33 0 0.66 0 1 0 C1.6546278 49.60064458 -2.13135552 96.50919909 -17 144 C-17.53947266 145.72404053 -17.53947266 145.72404053 -18.08984375 147.48291016 C-37.28168118 207.75617616 -72.34736029 259.2930357 -116.6875 303.8125 C-117.48357666 304.61324951 -118.27965332 305.41399902 -119.09985352 306.23901367 C-123.90551932 311.03169524 -128.84071823 315.59199552 -134 320 C-134.96421875 320.845625 -135.9284375 321.69125 -136.921875 322.5625 C-146.57053719 330.87847405 -156.72654171 338.47643591 -167 346 C-168.09900635 346.80703369 -168.09900635 346.80703369 -169.22021484 347.63037109 C-221.76627249 386.03082028 -281.93135563 411.54486651 -344 430 C-345.01497559 430.30276855 -346.02995117 430.60553711 -347.07568359 430.91748047 C-362.84359921 435.56541391 -378.86276311 438.9095749 -395 442 C-396.15371094 442.22574707 -397.30742187 442.45149414 -398.49609375 442.68408203 C-433.24052342 449.38352583 -468.47096274 451.6682232 -503.80859375 451.23828125 C-504.92581062 451.22692139 -504.92581062 451.22692139 -506.06559753 451.21533203 C-510.14313272 451.14132626 -513.9928307 450.73189677 -518 450 C-519.87031709 449.80099878 -521.7429564 449.62278457 -523.6171875 449.46484375 C-524.63554687 449.37783203 -525.65390625 449.29082031 -526.703125 449.20117188 C-527.74984375 449.11416016 -528.7965625 449.02714844 -529.875 448.9375 C-530.94492188 448.84662109 -532.01484375 448.75574219 -533.1171875 448.66210938 C-535.74461713 448.43924704 -538.3722138 448.21861094 -541 448 C-538.679379 445.679379 -537.91159376 445.6421234 -534.75 445.2109375 C-533.84910645 445.07848633 -532.94821289 444.94603516 -532.02001953 444.80957031 C-531.02341309 444.66616211 -530.02680664 444.52275391 -529 444.375 C-504.83468372 440.59789391 -481.14768142 434.4818991 -457.90063477 426.92993164 C-454.86227846 425.95584704 -451.8118827 425.02902108 -448.7578125 424.10546875 C-441.16885641 421.77654706 -433.67283972 419.20132096 -426.1875 416.5625 C-425.45755829 416.30533203 -424.72761658 416.04816406 -423.97555542 415.78320312 C-379.20650373 399.95197909 -335.3380208 380.38554928 -294 357 C-292.32552375 356.06225355 -290.65104102 355.12451863 -288.97637939 354.18710327 C-273.6682 345.60625326 -258.67150193 336.63924765 -244 327 C-243.10700195 326.41476562 -242.21400391 325.82953125 -241.29394531 325.2265625 C-224.07900997 313.9186523 -207.26237384 302.18866616 -190.99609375 289.55078125 C-189.10492973 288.08152075 -187.20902388 286.61858051 -185.3125 285.15625 C-178.73574969 280.06108529 -172.33780616 274.79801947 -166.05151367 269.34838867 C-162.46558254 266.24091958 -158.82596748 263.22098355 -155.125 260.25 C-151.21481178 257.07833928 -147.60950528 253.76879947 -144.14453125 250.1171875 C-142.31071341 248.30675167 -140.44029623 246.64668807 -138.484375 244.97265625 C-133.4159915 240.57096507 -128.68820456 235.83849479 -123.9543457 231.0847168 C-122.4400742 229.56508332 -120.9205257 228.05087483 -119.40039062 226.53710938 C-114.05593806 221.19631068 -108.90706781 215.74880641 -104 210 C-102.54554483 208.39231627 -101.08779105 206.78760285 -99.625 205.1875 C-94.89766687 199.93579043 -90.4000529 194.52732593 -86 189 C-85.24009766 188.04891357 -85.24009766 188.04891357 -84.46484375 187.07861328 C-70.25156304 169.23220969 -57.38719902 150.7752173 -46 131 C-45.5673584 130.25572754 -45.1347168 129.51145508 -44.68896484 128.74462891 C-33.52059586 109.46707154 -24.40161136 89.52033603 -16.91650391 68.54248047 C-16.15264145 66.4234438 -15.36220524 64.32067245 -14.54296875 62.22265625 C-7.42240157 43.57355172 -4.02732206 23.93772857 -1.38549805 4.23291016 C-1 2 -1 2 0 0 Z " fill="#FCFCFD" transform="translate(2841,2269)"/>
<path d="M0 0 C0 3.71191755 -0.66100466 3.98391197 -3.1875 6.5625 C-45.47813736 52.73164378 -68.82246859 117.76342586 -76 179 C-76.08669952 179.72578247 -76.17339905 180.45156494 -76.26272583 181.19934082 C-76.96523691 187.52670681 -77.1460905 193.77000912 -77.1328125 200.1328125 C-77.13376923 201.16832245 -77.13472595 202.2038324 -77.13571167 203.27072144 C-77.13638823 205.45066387 -77.13457074 207.63060838 -77.13037109 209.81054688 C-77.12504845 213.0950998 -77.13031708 216.37951394 -77.13671875 219.6640625 C-77.14445539 236.68031146 -76.38087275 253.29505378 -73.75 270.125 C-73.64084259 270.83589783 -73.53168518 271.54679565 -73.41921997 272.27923584 C-71.5105795 284.65696205 -69.12877088 296.8676508 -66 309 C-65.72051514 310.10206787 -65.44103027 311.20413574 -65.15307617 312.33959961 C-62.61713529 322.12459504 -59.63857174 331.72595235 -56.4375 341.3125 C-56.17744171 342.09313812 -55.91738342 342.87377625 -55.64944458 343.67807007 C-50.81611427 358.11968433 -45.32332316 372.13671429 -39 386 C-38.55833496 386.97678711 -38.11666992 387.95357422 -37.66162109 388.95996094 C-22.02278683 423.32086076 -1.78801411 455.69109165 22 485 C22.74507812 485.92683594 23.49015625 486.85367188 24.2578125 487.80859375 C32.43181616 497.90158393 40.67631086 507.94270198 50 517 C51.88541055 518.88541055 53.59995013 520.83311362 55.3125 522.875 C59.59586892 527.85749351 64.50338693 532.1472388 69.38085938 536.52929688 C70.99584848 537.99622908 72.58675722 539.48525621 74.171875 540.984375 C80.77999243 547.21869585 87.59919829 552.99836573 94.80859375 558.52734375 C97.9461008 560.93407993 100.97700067 563.45119665 104 566 C102 567 102 567 99.0078125 566.13671875 C97.70903491 565.66589691 96.41507671 565.18166445 95.125 564.6875 C94.42028564 564.41824707 93.71557129 564.14899414 92.98950195 563.87158203 C66.47471151 553.43187022 42.15071748 537.57930922 21.3359375 518.16015625 C19.37549759 516.34724109 17.38068176 514.60616567 15.35546875 512.8671875 C10.33110162 508.48401752 5.63977639 503.78603762 0.9375 499.0625 C-0.35124023 497.77956055 -0.35124023 497.77956055 -1.66601562 496.47070312 C-6.65255734 491.47654256 -11.44132084 486.38703038 -16 481 C-16.54180908 480.36489502 -17.08361816 479.72979004 -17.6418457 479.07543945 C-36.06797336 457.34478912 -51.99682506 433.8000633 -66 409 C-66.49467773 408.12956055 -66.98935547 407.25912109 -67.49902344 406.36230469 C-81.13180815 382.24276251 -91.87787082 357.14230312 -101 331 C-101.2582959 330.26378418 -101.5165918 329.52756836 -101.78271484 328.76904297 C-103.3528681 324.22422574 -104.71361979 319.63133471 -106 315 C-106.29616211 313.94458008 -106.59232422 312.88916016 -106.89746094 311.80175781 C-110.91310809 297.33367494 -114.44660508 282.87429432 -116.9375 268.0625 C-117.23624023 266.2988208 -117.23624023 266.2988208 -117.54101562 264.49951172 C-120.21282874 247.63428567 -120.27385097 230.66098464 -120.3125 213.625 C-120.31511841 212.51705078 -120.31773682 211.40910156 -120.32043457 210.26757812 C-120.32460591 193.78245086 -119.54211811 178.14826343 -116 162 C-115.70363468 160.43577876 -115.4117804 158.87069436 -115.125 157.3046875 C-104.93486165 104.11204943 -72.741125 54.00472973 -30 21 C-29.40171387 20.5359375 -28.80342773 20.071875 -28.18701172 19.59375 C-19.0880284 12.56178101 -9.77856944 6.05048984 0 0 Z " fill="#FCFDFD" transform="translate(200,1884)"/>
<path d="M0 0 C0.99 0.495 0.99 0.495 2 1 C1.51273437 1.50144531 1.02546875 2.00289062 0.5234375 2.51953125 C-39.14951902 44.86139575 -56.93472319 101.31623878 -62 158 C-62.07202637 158.76231934 -62.14405273 159.52463867 -62.21826172 160.31005859 C-62.66585945 165.20751387 -62.87323355 170.086422 -63 175 C-63.04882324 176.6080249 -63.04882324 176.6080249 -63.09863281 178.24853516 C-64.35286318 225.54822286 -57.54114179 273.40728719 -45 319 C-44.76555176 319.85384277 -44.53110352 320.70768555 -44.28955078 321.58740234 C-42.36683602 328.44867682 -40.21603792 335.22842256 -38 342 C-37.7641217 342.72094849 -37.52824341 343.44189697 -37.28521729 344.18469238 C-29.74532231 367.17859675 -21.82041743 389.86529181 -12 412 C-11.4755127 413.18368164 -10.95102539 414.36736328 -10.41064453 415.58691406 C5.92058834 452.40110751 5.92058834 452.40110751 27.66967773 486.15185547 C29 488 29 488 29 490 C25.01289138 488.36499862 22.1523398 485.60036611 19.0625 482.6875 C18.49692383 482.15842041 17.93134766 481.62934082 17.34863281 481.08422852 C7.56423446 471.87721243 -1.68071489 462.57656554 -10 452 C-10.90661629 450.89269518 -11.81559752 449.78732373 -12.7265625 448.68359375 C-35.00990277 421.55166739 -52.42484757 391.34330551 -68 360 C-68.44279297 359.12085938 -68.88558594 358.24171875 -69.34179688 357.3359375 C-81.29096711 333.55379643 -89.96693131 308.3230808 -98 283 C-98.29745117 282.07767578 -98.59490234 281.15535156 -98.90136719 280.20507812 C-118.92420228 217.55220209 -123.85625985 141.84184782 -93.18530273 81.85229492 C-73.98130009 45.53554401 -43.97267526 20.24578032 -7 3 C-6.35981934 2.69707031 -5.71963867 2.39414063 -5.06005859 2.08203125 C-3.40072597 1.32494736 -1.70226205 0.65487763 0 0 Z " fill="#FCFCFC" transform="translate(332,1112)"/>
<path d="M0 0 C0.53689453 0.42651855 1.07378906 0.85303711 1.62695312 1.29248047 C7.44497299 5.91874465 13.04666648 10.75054925 18.5390625 15.7578125 C20.16935555 17.24319061 21.8099308 18.71736728 23.4609375 20.1796875 C32.53914287 28.22692948 41.23627278 36.66522385 49 46 C49.45068848 46.53689453 49.90137695 47.07378906 50.36572266 47.62695312 C63.88507566 63.7759088 75.52726431 80.72977193 86 99 C86.40847168 99.70560059 86.81694336 100.41120117 87.23779297 101.13818359 C101.21988284 125.5086438 109.84781466 152.48693947 115 180 C115.21527344 181.1446875 115.43054687 182.289375 115.65234375 183.46875 C120.99367944 213.72332297 119.65173928 246.10776175 113 276 C112.7922998 276.95712891 112.58459961 277.91425781 112.37060547 278.90039062 C111.33584619 283.6253655 110.2279199 288.32155659 109 293 C108.67 293 108.34 293 108 293 C107.74476563 291.61554688 107.74476563 291.61554688 107.484375 290.203125 C106.8172427 286.59807179 106.13327518 282.99631226 105.44873047 279.39453125 C105.0165096 277.08809909 104.60287506 274.77896035 104.19140625 272.46875 C98.09360243 239.15485851 86.01240094 207.70194556 72 177 C71.31626929 175.4779261 70.63266347 173.95579609 69.94921875 172.43359375 C56.03755545 141.81580014 37.83826979 113.09001185 18 86 C17.30438965 85.04528809 17.30438965 85.04528809 16.59472656 84.07128906 C9.96833176 75.00149417 3.02100982 66.34299473 -4.38574219 57.90136719 C-5.55968991 56.51862296 -6.70229156 55.10907796 -7.82519531 53.68457031 C-14.12839397 45.71592847 -21.11941812 38.5751624 -28.31933594 31.41992188 C-30.37148541 29.37849623 -32.41271421 27.32658861 -34.453125 25.2734375 C-41.66759736 18.05175531 -48.97583621 11.31976364 -57 5 C-58.07958767 4.078268 -59.15262133 3.14872279 -60.21484375 2.20703125 C-75.39224966 -11.14124683 -92.46401344 -22.03076698 -110 -32 C-110.76602539 -32.43795898 -111.53205078 -32.87591797 -112.32128906 -33.32714844 C-147.38622924 -53.16474414 -185.02498286 -63.0988102 -225 -65 C-222.22219124 -67.77780876 -219.77659839 -67.82849821 -215.9375 -68.5625 C-214.66777344 -68.81128906 -213.39804688 -69.06007813 -212.08984375 -69.31640625 C-137.9330959 -82.23772551 -56.54301938 -45.36698637 0 0 Z " fill="#FCFDFD" transform="translate(2921,1008)"/>
<path d="M0 0 C1.93610806 2.90416209 2.6642811 5.2497485 3.49487305 8.59619141 C13.55125579 48.96878346 39.56360162 81.31258924 74.8671875 102.56640625 C76.24318895 103.38031983 77.62077191 104.19156621 79 105 C79.64356445 105.3801123 80.28712891 105.76022461 80.95019531 106.15185547 C108.43137603 122.15592863 139.33603581 129.91357209 170.5 134.6875 C171.27585449 134.80689941 172.05170898 134.92629883 172.85107422 135.04931641 C183.13369751 136.55435616 193.37938984 137.15376468 203.765625 137.1328125 C204.84269714 137.13376923 205.91976929 137.13472595 207.02947998 137.13571167 C209.29162658 137.13638711 211.55377518 137.13457762 213.81591797 137.13037109 C217.22758474 137.12503506 220.63911861 137.13032711 224.05078125 137.13671875 C248.73917428 137.14481507 272.08721465 134.92068663 296.20703125 129.60839844 C298.61351571 129.08418871 301.02288987 128.58650043 303.4375 128.1015625 C334.93648652 121.5489229 364.30880138 107.91221679 387 85 C384.89755545 101.29394524 371.39545195 117.22454589 359 127 C358.14019531 127.69609375 357.28039063 128.3921875 356.39453125 129.109375 C314.78160571 161.68089566 259.65854041 171.47037807 208.125 171.375 C207.01192474 171.37445618 205.89884949 171.37391235 204.75204468 171.37335205 C178.02724645 171.31355058 152.74584983 168.55537796 127 161 C126.19320801 160.76555176 125.38641602 160.53110352 124.55517578 160.28955078 C97.26463709 152.19436692 71.13377843 138.73431218 50.328125 119.17578125 C48.51431685 117.48066189 46.6977029 115.90753465 44.75 114.375 C16.88661512 90.31116761 2.96034321 50.70660538 0 15 C-0.24704709 9.99177309 -0.21071369 5.01030337 0 0 Z " fill="#FDFDFB" transform="translate(1780,1970)"/>
<path d="M0 0 C2.1526185 3.22892776 2.36956265 4.72286393 2.8125 8.5 C8.50194089 47.6311927 31.47159038 84.13248753 62 109 C63.16183736 109.97350616 64.32325312 110.94751558 65.484375 111.921875 C112.48035737 151.0598389 171.73300048 177.27951621 232 187 C207.51066035 200.60518869 160.01270958 186.0095244 135.421875 179.21875 C106.03088828 170.75476412 76.80592369 158.08234684 52 140 C51.4416748 139.59571777 50.88334961 139.19143555 50.30810547 138.77490234 C22.75796121 118.65651914 -0.08127561 92.3652129 -6.57421875 57.95703125 C-8.70001351 38.20079186 -7.8279229 18.4358558 0 0 Z " fill="#FEFAFA" transform="translate(767,1175)"/>
<path d="M0 0 C0.99 0.495 0.99 0.495 2 1 C1.31035156 1.83660156 0.62070312 2.67320312 -0.08984375 3.53515625 C-20.59878465 28.77212935 -31.08102167 58.02935554 -36 90 C-36.17950195 91.1144751 -36.35900391 92.2289502 -36.54394531 93.37719727 C-38.2827916 105.39083375 -38.31258601 117.3165198 -38.25 129.4375 C-38.24689819 130.50170166 -38.24379639 131.56590332 -38.24060059 132.66235352 C-38.13238903 164.28153109 -34.49254306 194.25517501 -27 225 C-26.70609375 226.24007812 -26.4121875 227.48015625 -26.109375 228.7578125 C-23.9949408 237.19632718 -21.2898263 245.43013431 -18.5625 253.6875 C-18.19092773 254.81631592 -17.81935547 255.94513184 -17.43652344 257.1081543 C-15.20156166 263.7745562 -12.70956583 270.22905239 -9.83569336 276.64770508 C-9.42202515 277.81209106 -9.42202515 277.81209106 -9 279 C-9.33 279.66 -9.66 280.32 -10 281 C-46.68363631 246.41590408 -68.49586731 192.61308172 -70.35302734 142.50216675 C-70.93532997 122.30910767 -70.86622231 102.50162114 -65 83 C-64.61448975 81.71778564 -64.61448975 81.71778564 -64.22119141 80.40966797 C-59.19050463 64.35408753 -51.56132034 49.12977211 -41 36 C-40.59023926 35.4848584 -40.18047852 34.9697168 -39.75830078 34.43896484 C-29.17510286 21.21094846 -17.09354858 11.29467003 -3 2 C-2.01 1.34 -1.02 0.68 0 0 Z " fill="#FBFCFD" transform="translate(961,436)"/>
<path d="M0 0 C8.40917717 8.40917717 7.2128876 33.63297152 7.3125 44.9375 C7.13215015 85.69656541 -10.86146328 122.8446993 -39.125 151.5625 C-57.06148324 169.3356164 -77.94563484 181.94132437 -101 192 C-102.05960938 192.47050781 -103.11921875 192.94101563 -104.2109375 193.42578125 C-131.19978304 204.63066185 -166.84150128 209.67834602 -194.5625 198.5625 C-198.87210494 196.62229587 -202.97288915 194.47118166 -207 192 C-207 191.67 -207 191.34 -207 191 C-206.33057373 190.97494385 -205.66114746 190.9498877 -204.97143555 190.92407227 C-201.87666906 190.80652924 -198.78209248 190.68453514 -195.6875 190.5625 C-194.63498047 190.52318359 -193.58246094 190.48386719 -192.49804688 190.44335938 C-149.44349184 188.72117717 -107.26305375 172.51014588 -74 145 C-72.92583586 144.13014089 -71.85161597 143.26035063 -70.77734375 142.390625 C-57.95088584 131.88773148 -46.86277745 120.31953328 -37 107 C-36.37738281 106.17242188 -35.75476562 105.34484375 -35.11328125 104.4921875 C-12.89961636 73.94192576 -1.82823839 37.47888708 0 0 Z " fill="#FDFCFA" transform="translate(3299,1658)"/>
<path d="M0 0 C1.04982056 0.00273422 1.04982056 0.00273422 2.12084961 0.00552368 C37.04064319 0.1582008 66.70852844 10.72158334 91.71875 35.6484375 C107.56432882 52.4165329 114.82504306 73.23312155 119.625 95.3125 C119.8005542 96.11397461 119.9761084 96.91544922 120.15698242 97.74121094 C121.04570831 102.00673631 121.57175338 105.92771044 121.375 110.3125 C119.11063249 107.53193929 117.47151109 104.64653245 115.87768555 101.44067383 C94.83283473 59.40015517 54.2020972 33.94177676 11.375 18.3125 C10.61493652 18.03293457 9.85487305 17.75336914 9.07177734 17.46533203 C-8.12878786 11.26432239 -26.50563355 9.0125887 -44.625 7.3125 C-41.98580621 4.67330621 -39.95806312 4.55864418 -36.3125 3.8125 C-35.18199219 3.5753125 -34.05148438 3.338125 -32.88671875 3.09375 C-31.46709092 2.82822962 -30.04637143 2.56852248 -28.625 2.3125 C-27.69075195 2.13823486 -26.75650391 1.96396973 -25.79394531 1.78442383 C-17.17817492 0.30139225 -8.72937501 -0.04735201 0 0 Z " fill="#FAFAFB" transform="translate(2437.625,568.6875)"/>
<path d="M0 0 C0.33 0 0.66 0 1 0 C1 14.85 1 29.7 1 45 C0.67 45 0.34 45 0 45 C0 34.77 0 24.54 0 14 C-0.66 14 -1.32 14 -2 14 C-1.85923685 12.0412957 -1.7122324 10.08303907 -1.5625 8.125 C-1.48128906 7.03445312 -1.40007813 5.94390625 -1.31640625 4.8203125 C-1 2 -1 2 0 0 Z " fill="#BFC9D5" transform="translate(2841,2269)"/>
<path d="M0 0 C3.95820859 0.56545837 6.6659053 1.80902348 10 4 C9.67 4.99 9.34 5.98 9 7 C9 6.34 9 5.68 9 5 C7.9171875 4.814375 7.9171875 4.814375 6.8125 4.625 C4.04278106 4.0095069 1.6029646 3.11555626 -1 2 C-0.67 1.34 -0.34 0.68 0 0 Z " fill="#0D7D44" transform="translate(2375,211)"/>
<path d="M0 0 C-0.33 0.66 -0.66 1.32 -1 2 C-3.97 2 -6.94 2 -10 2 C-6.80505194 -1.19494806 -4.22040044 -1.35655728 0 0 Z " fill="#CDEAF7" transform="translate(2706,941)"/>
<path d="M0 0 C3.875 1.75 3.875 1.75 5 4 C1.125 2.25 1.125 2.25 0 0 Z " fill="#163A5F" transform="translate(1913,1257)"/>
</svg>
