<?xml version="1.0" encoding="UTF-8"?>
<svg id="Layer_1" data-name="Layer 1" xmlns="http://www.w3.org/2000/svg" viewBox="0 0 20 16">
  <defs>
    <style>
      .cls-1 {
        fill: #08a745;
      }
    </style>
  </defs>
  <path class="cls-1" d="M1.69,5.12c-.17-.18-.4-.28-.65-.28-.41,0-.72.19-.92.58s-.15.76.17,1.11c1.18,1.06,1.93,1.81,2.25,2.25.41.56.61,1.38.61,2.44,0,1.31.5,2.28,1.5,2.95.56.44,1.17.77,1.85.99v-3.89c0-.94-.33-1.72-.96-2.35M14.46,8.97c-.62.62-.96,1.39-.96,2.3v3.93c.96-.34,1.76-.87,2.42-1.57.65-.7.98-1.47.98-2.41,0-1.13.19-1.94.57-2.44.09-.16.26-.36.53-.61.23-.25.47-.49.71-.71.23-.21.46-.43.68-.65l.33-.28c.18-.17.28-.41.28-.66,0-.28-.09-.53-.28-.73s-.42-.3-.72-.3-.5.09-.69.28M10,16c.69,0,1.36-.09,2-.28v-3.57c0-.59-.18-1.05-.59-1.49s-.88-.66-1.41-.66-1,.2-1.38.61c-.4.39-.62.85-.62,1.45v3.66c.64.19,1.31.28,2,.28M7,4.5c0,.83-.67,1.5-1.5,1.5s-1.5-.67-1.5-1.5.67-1.5,1.5-1.5,1.5.67,1.5,1.5M16,4.5c0,.83-.67,1.5-1.5,1.5s-1.5-.67-1.5-1.5.67-1.5,1.5-1.5,1.5.67,1.5,1.5M11.5,1.5c0,.83-.67,1.5-1.5,1.5s-1.5-.67-1.5-1.5.67-1.5,1.5-1.5,1.5.67,1.5,1.5M11.5,7c0,.83-.67,1.5-1.5,1.5s-1.5-.67-1.5-1.5.67-1.5,1.5-1.5,1.5.67,1.5,1.5"/>
</svg>